<svg width="24" height="24" viewBox="0 0 24 24" fill="none" xmlns="http://www.w3.org/2000/svg">
<path d="M16.9167 13.3333C17.204 13.3333 17.4795 13.2104 17.6827 12.9916C17.8859 12.7728 18 12.4761 18 12.1667C18 11.8572 17.8859 11.5605 17.6827 11.3417C17.4795 11.1229 17.204 11 16.9167 11C16.6293 11 16.3538 11.1229 16.1506 11.3417C15.9475 11.5605 15.8333 11.8572 15.8333 12.1667C15.8333 12.4761 15.9475 12.7728 16.1506 12.9916C16.3538 13.2104 16.6293 13.3333 16.9167 13.3333ZM16.9167 18C17.204 18 17.4795 17.8771 17.6827 17.6583C17.8859 17.4395 18 17.1428 18 16.8333C18 16.5239 17.8859 16.2272 17.6827 16.0084C17.4795 15.7896 17.204 15.6667 16.9167 15.6667C16.6293 15.6667 16.3538 15.7896 16.1506 16.0084C15.9475 16.2272 15.8333 16.5239 15.8333 16.8333C15.8333 17.1428 15.9475 17.4395 16.1506 17.6583C16.3538 17.8771 16.6293 18 16.9167 18ZM12.5833 12.1667C12.5833 12.4761 12.4692 12.7728 12.266 12.9916C12.0629 13.2104 11.7873 13.3333 11.5 13.3333C11.2127 13.3333 10.9371 13.2104 10.734 12.9916C10.5308 12.7728 10.4167 12.4761 10.4167 12.1667C10.4167 11.8572 10.5308 11.5605 10.734 11.3417C10.9371 11.1229 11.2127 11 11.5 11C11.7873 11 12.0629 11.1229 12.266 11.3417C12.4692 11.5605 12.5833 11.8572 12.5833 12.1667ZM12.5833 16.8333C12.5833 17.1428 12.4692 17.4395 12.266 17.6583C12.0629 17.8771 11.7873 18 11.5 18C11.2127 18 10.9371 17.8771 10.734 17.6583C10.5308 17.4395 10.4167 17.1428 10.4167 16.8333C10.4167 16.5239 10.5308 16.2272 10.734 16.0084C10.9371 15.7896 11.2127 15.6667 11.5 15.6667C11.7873 15.6667 12.0629 15.7896 12.266 16.0084C12.4692 16.2272 12.5833 16.5239 12.5833 16.8333ZM6.08333 13.3333C6.37065 13.3333 6.6462 13.2104 6.84937 12.9916C7.05253 12.7728 7.16667 12.4761 7.16667 12.1667C7.16667 11.8572 7.05253 11.5605 6.84937 11.3417C6.6462 11.1229 6.37065 11 6.08333 11C5.79602 11 5.52047 11.1229 5.3173 11.3417C5.11414 11.5605 5 11.8572 5 12.1667C5 12.4761 5.11414 12.7728 5.3173 12.9916C5.52047 13.2104 5.79602 13.3333 6.08333 13.3333ZM6.08333 18C6.37065 18 6.6462 17.8771 6.84937 17.6583C7.05253 17.4395 7.16667 17.1428 7.16667 16.8333C7.16667 16.5239 7.05253 16.2272 6.84937 16.0084C6.6462 15.7896 6.37065 15.6667 6.08333 15.6667C5.79602 15.6667 5.52047 15.7896 5.3173 16.0084C5.11414 16.2272 5 16.5239 5 16.8333C5 17.1428 5.11414 17.4395 5.3173 17.6583C5.52047 17.8771 5.79602 18 6.08333 18Z" fill="#666666"/>
<path fill-rule="evenodd" clip-rule="evenodd" d="M6.41779 0C6.63984 0 6.8528 0.0865431 7.00981 0.240591C7.16683 0.394639 7.25503 0.603572 7.25503 0.821429V1.6571C7.99405 1.64286 8.80785 1.64286 9.70315 1.64286H14.2946C15.191 1.64286 16.0048 1.64286 16.7438 1.6571V0.821429C16.7438 0.603572 16.8321 0.394639 16.9891 0.240591C17.1461 0.0865431 17.359 0 17.5811 0C17.8031 0 18.0161 0.0865431 18.1731 0.240591C18.3301 0.394639 18.4183 0.603572 18.4183 0.821429V1.72719C18.7086 1.7491 18.9832 1.77648 19.2433 1.81043C20.5517 1.98348 21.6111 2.3471 22.4472 3.16633C23.2822 3.98667 23.6528 5.02605 23.8292 6.30967C24 7.55824 24 9.15181 24 11.1649V13.478C24 15.491 24 17.0857 23.8292 18.3332C23.6528 19.6168 23.2822 20.6562 22.4472 21.4765C21.6111 22.2958 20.5517 22.6594 19.2433 22.8324C17.9707 23 16.3464 23 14.2946 23H9.70538C7.65356 23 6.02819 23 4.75669 22.8324C3.44835 22.6594 2.38895 22.2958 1.55282 21.4765C0.717801 20.6562 0.347179 19.6168 0.170799 18.3332C0 17.0846 0 15.491 0 13.478V11.1649C0 9.15181 0 7.55714 0.170799 6.30967C0.347179 5.02605 0.717801 3.98667 1.55282 3.16633C2.38895 2.3471 3.44835 1.98348 4.75669 1.81043C5.01679 1.77648 5.29253 1.7491 5.58166 1.72719V0.821429C5.58165 0.603762 5.66971 0.394994 5.82648 0.240978C5.98326 0.0869614 6.19593 0.000290222 6.41779 0ZM4.97772 3.43905C3.85581 3.5869 3.20833 3.8651 2.73613 4.32838C2.26392 4.79167 1.98037 5.4269 1.82967 6.52871C1.80399 6.7149 1.78278 6.91205 1.76492 7.11905H22.234C22.2161 6.91095 22.1949 6.7149 22.1692 6.52762C22.0185 5.4269 21.735 4.79167 21.2628 4.32838C20.7905 3.8651 20.1431 3.5869 19.02 3.43905C17.8736 3.2879 16.3609 3.28571 14.2321 3.28571H9.76678C7.63794 3.28571 6.12642 3.2879 4.97772 3.43905ZM1.67338 11.2262C1.67338 10.2909 1.67338 9.4771 1.68789 8.7619H22.311C22.3255 9.4771 22.3255 10.2909 22.3255 11.2262V13.4167C22.3255 15.5053 22.3233 16.9893 22.1692 18.1152C22.0185 19.216 21.735 19.8512 21.2628 20.3145C20.7905 20.7778 20.1431 21.056 19.02 21.2038C17.8736 21.355 16.3609 21.3571 14.2321 21.3571H9.76678C7.63794 21.3571 6.12642 21.355 4.97772 21.2038C3.85581 21.056 3.20833 20.7778 2.73613 20.3145C2.26392 19.8512 1.98037 19.216 1.82967 18.1141C1.67561 16.9893 1.67338 15.5053 1.67338 13.4167V11.2262Z" fill="#666666"/>
</svg>
