<svg width="25" height="24" viewBox="0 0 25 24" fill="none" xmlns="http://www.w3.org/2000/svg">
<g clip-path="url(#clip0_332_1610)">
<path d="M12.1779 15C13.8348 15 15.1779 13.6569 15.1779 12C15.1779 10.3431 13.8348 9 12.1779 9C10.5211 9 9.17792 10.3431 9.17792 12C9.17792 13.6569 10.5211 15 12.1779 15Z" stroke="#666666" stroke-width="2" stroke-linecap="round" stroke-linejoin="round"/>
<path d="M19.5779 15C19.4448 15.3016 19.4051 15.6362 19.4639 15.9606C19.5227 16.285 19.6774 16.5843 19.9079 16.82L19.9679 16.88C20.1539 17.0657 20.3014 17.2863 20.402 17.5291C20.5027 17.7719 20.5545 18.0322 20.5545 18.295C20.5545 18.5578 20.5027 18.8181 20.402 19.0609C20.3014 19.3037 20.1539 19.5243 19.9679 19.71C19.7822 19.896 19.5616 20.0435 19.3188 20.1441C19.076 20.2448 18.8157 20.2966 18.5529 20.2966C18.2901 20.2966 18.0298 20.2448 17.787 20.1441C17.5442 20.0435 17.3237 19.896 17.1379 19.71L17.0779 19.65C16.8422 19.4195 16.5429 19.2648 16.2185 19.206C15.8941 19.1472 15.5595 19.1869 15.2579 19.32C14.9621 19.4468 14.7099 19.6572 14.5322 19.9255C14.3545 20.1938 14.2592 20.5082 14.2579 20.83V21C14.2579 21.5304 14.0472 22.0391 13.6721 22.4142C13.2971 22.7893 12.7884 23 12.2579 23C11.7275 23 11.2188 22.7893 10.8437 22.4142C10.4686 22.0391 10.2579 21.5304 10.2579 21V20.91C10.2502 20.579 10.143 20.258 9.95043 19.9887C9.75782 19.7194 9.48865 19.5143 9.17792 19.4C8.8763 19.2669 8.54172 19.2272 8.21733 19.286C7.89293 19.3448 7.5936 19.4995 7.35792 19.73L7.29792 19.79C7.11217 19.976 6.89159 20.1235 6.6488 20.2241C6.406 20.3248 6.14575 20.3766 5.88292 20.3766C5.62009 20.3766 5.35983 20.3248 5.11704 20.2241C4.87424 20.1235 4.65366 19.976 4.46792 19.79C4.28196 19.6043 4.13445 19.3837 4.0338 19.1409C3.93315 18.8981 3.88134 18.6378 3.88134 18.375C3.88134 18.1122 3.93315 17.8519 4.0338 17.6091C4.13445 17.3663 4.28196 17.1457 4.46792 16.96L4.52792 16.9C4.75845 16.6643 4.9131 16.365 4.97192 16.0406C5.03074 15.7162 4.99103 15.3816 4.85792 15.08C4.73115 14.7842 4.52067 14.532 4.25238 14.3543C3.98409 14.1766 3.6697 14.0813 3.34792 14.08H3.17792C2.64748 14.08 2.13878 13.8693 1.7637 13.4942C1.38863 13.1191 1.17792 12.6104 1.17792 12.08C1.17792 11.5496 1.38863 11.0409 1.7637 10.6658C2.13878 10.2907 2.64748 10.08 3.17792 10.08H3.26792C3.59891 10.0723 3.91992 9.96512 4.18922 9.77251C4.45851 9.5799 4.66363 9.31074 4.77792 9C4.91103 8.69838 4.95074 8.36381 4.89192 8.03941C4.8331 7.71502 4.67845 7.41568 4.44792 7.18L4.38792 7.12C4.20196 6.93425 4.05445 6.71368 3.9538 6.47088C3.85315 6.22808 3.80134 5.96783 3.80134 5.705C3.80134 5.44217 3.85315 5.18192 3.9538 4.93912C4.05445 4.69632 4.20196 4.47575 4.38792 4.29C4.57366 4.10405 4.79424 3.95653 5.03704 3.85588C5.27983 3.75523 5.54009 3.70343 5.80292 3.70343C6.06575 3.70343 6.326 3.75523 6.5688 3.85588C6.81159 3.95653 7.03217 4.10405 7.21792 4.29L7.27792 4.35C7.5136 4.58054 7.81293 4.73519 8.13733 4.794C8.46172 4.85282 8.7963 4.81312 9.09792 4.68H9.17792C9.47369 4.55324 9.72593 4.34276 9.90361 4.07447C10.0813 3.80618 10.1766 3.49179 10.1779 3.17V3C10.1779 2.46957 10.3886 1.96086 10.7637 1.58579C11.1388 1.21071 11.6475 1 12.1779 1C12.7084 1 13.2171 1.21071 13.5921 1.58579C13.9672 1.96086 14.1779 2.46957 14.1779 3V3.09C14.1792 3.41179 14.2745 3.72618 14.4522 3.99447C14.6299 4.26276 14.8821 4.47324 15.1779 4.6C15.4795 4.73312 15.8141 4.77282 16.1385 4.714C16.4629 4.65519 16.7622 4.50054 16.9979 4.27L17.0579 4.21C17.2437 4.02405 17.4642 3.87653 17.707 3.77588C17.9498 3.67523 18.2101 3.62343 18.4729 3.62343C18.7357 3.62343 18.996 3.67523 19.2388 3.77588C19.4816 3.87653 19.7022 4.02405 19.8879 4.21C20.0739 4.39575 20.2214 4.61632 20.322 4.85912C20.4227 5.10192 20.4745 5.36217 20.4745 5.625C20.4745 5.88783 20.4227 6.14808 20.322 6.39088C20.2214 6.63368 20.0739 6.85425 19.8879 7.04L19.8279 7.1C19.5974 7.33568 19.4427 7.63502 19.3839 7.95941C19.3251 8.28381 19.3648 8.61838 19.4979 8.92V9C19.6247 9.29577 19.8352 9.54802 20.1035 9.72569C20.3717 9.90337 20.6861 9.99872 21.0079 10H21.1779C21.7084 10 22.2171 10.2107 22.5921 10.5858C22.9672 10.9609 23.1779 11.4696 23.1779 12C23.1779 12.5304 22.9672 13.0391 22.5921 13.4142C22.2171 13.7893 21.7084 14 21.1779 14H21.0879C20.7661 14.0013 20.4517 14.0966 20.1835 14.2743C19.9152 14.452 19.7047 14.7042 19.5779 15V15Z" stroke="#666666" stroke-width="2" stroke-linecap="round" stroke-linejoin="round"/>
</g>
<defs>
<clipPath id="clip0_332_1610">
<rect width="24" height="24" fill="white" transform="translate(0.177917)"/>
</clipPath>
</defs>
</svg>
