<svg width="64" height="66" viewBox="0 0 64 66" fill="none" xmlns="http://www.w3.org/2000/svg">
<circle cx="32" cy="34" r="32" fill="#4285F5"/>
<mask id="mask0_263_25" style="mask-type:alpha" maskUnits="userSpaceOnUse" x="8" y="0" width="54" height="65">
<path d="M23.343 63.6327C19.6859 62.7653 8.80165 18.1343 8.5 16C8.19836 13.8657 19.164 13.8124 20.5001 16C21.8362 18.1876 31.5 55 31.5 55L48.0656 0H62.0001C62.0001 0 43.6604 63.1429 40.424 63.6327C37.1876 64.1225 27 64.5 23.343 63.6327Z" fill="white"/>
</mask>
<g mask="url(#mask0_263_25)">
<path d="M64 34C64 51.6731 49.6731 66 32 66C14.3269 66 0 51.6731 0 34C0 16.3269 14.3269 2 32 2C49.6731 2 64 16.3269 64 34Z" fill="white"/>
</g>
</svg>
